<svg width="20" height="19" viewBox="0 0 20 19" fill="none" xmlns="http://www.w3.org/2000/svg">
<path d="M5.61114 0C2.51733 0 0 2.40433 0 5.35825V13.011C0 15.9646 2.51882 18.3678 5.6134 18.3678H13.6306C16.7248 18.3678 19.2425 15.9635 19.2425 13.0096V5.35609C19.2425 2.40291 16.7237 0 13.6291 0H5.61114ZM15.394 2.93886C15.8189 2.93886 16.1637 3.26801 16.1637 3.67357C16.1637 4.07913 15.8189 4.40828 15.394 4.40828C14.9691 4.40828 14.6243 4.07913 14.6243 3.67357C14.6243 3.26801 14.9691 2.93886 15.394 2.93886ZM9.62125 4.40828C12.3806 4.40828 14.6243 6.54997 14.6243 9.18392C14.6243 11.8179 12.3802 13.9596 9.62125 13.9596C6.86188 13.9596 4.6182 11.8175 4.6182 9.18392C4.6182 6.55034 6.86188 4.40828 9.62125 4.40828ZM9.62125 5.87771C7.70816 5.87771 6.1576 7.35779 6.1576 9.18392C6.1576 11.0101 7.70816 12.4901 9.62125 12.4901C11.5343 12.4901 13.0849 11.0101 13.0849 9.18392C13.0849 7.35779 11.5343 5.87771 9.62125 5.87771Z" fill="#C1DBF0"/>
</svg>
