<svg width="25" height="21" viewBox="0 0 25 21" fill="none" xmlns="http://www.w3.org/2000/svg">
<path d="M24.4905 2.86094C23.5903 3.26765 22.6224 3.5388 21.6013 3.66693C22.6395 3.03849 23.4381 2.03613 23.8129 0.851844C22.8415 1.43262 21.7655 1.85901 20.6205 2.0838C19.7062 1.09544 18.4021 0.4823 16.9572 0.4823C14.1817 0.4823 11.9324 2.75641 11.9324 5.56013C11.9324 5.95679 11.9778 6.34339 12.0636 6.71862C7.88831 6.50477 4.18517 4.48081 1.70769 1.409C1.2724 2.15946 1.02753 3.03849 1.02753 3.96607C1.02753 5.72894 1.91268 7.28059 3.26228 8.19505C2.43845 8.16924 1.66309 7.93571 0.984216 7.56092C0.984216 7.57623 0.984216 7.59897 0.984216 7.6204C0.984216 10.0839 2.71678 12.135 5.01328 12.602C4.59344 12.7192 4.15 12.7844 3.69285 12.7844C3.36821 12.7844 3.05214 12.7468 2.74594 12.6908C3.38536 14.7038 5.24057 16.1754 7.43844 16.2187C5.71874 17.5784 3.55304 18.3927 1.19778 18.3927C0.790804 18.3927 0.393257 18.3691 0 18.3205C2.22446 19.7572 4.86661 20.5995 7.70261 20.5995C16.944 20.5995 21.9993 12.8605 21.9993 6.14703C21.9993 5.92705 21.9924 5.70795 21.9821 5.49147C22.9689 4.78125 23.8189 3.88473 24.4905 2.86094Z" fill="#C1DBF0"/>
</svg>
