<svg width="23" height="22" viewBox="0 0 23 22" fill="none" xmlns="http://www.w3.org/2000/svg">
<path d="M21.6423 22C21.9451 22 22.1907 21.762 22.1907 21.4691C22.1907 17.0718 19.4208 13.1119 15.3423 11.5051C16.8254 10.3113 17.7716 8.51233 17.7716 6.50335C17.7716 2.91741 14.7579 0 11.0534 0C7.34925 0 4.33528 2.91755 4.33528 6.50335C4.33528 8.51304 5.28209 10.3124 6.76635 11.5065C2.79416 13.0857 0.190674 16.9656 0.190674 21.4691C0.190674 21.7622 0.43646 22 0.739047 22C1.04183 22 1.28742 21.762 1.28742 21.4691C1.28742 17.1397 3.93463 13.4542 7.8915 12.2398C8.83469 12.7287 9.91077 13.0071 11.0534 13.0071C12.1961 13.0071 13.2724 12.729 14.2154 12.2396C18.2735 13.4822 21.0937 17.2517 21.0937 21.469C21.0937 21.7624 21.3393 22 21.6423 22L21.6423 22ZM5.43202 6.50378C5.43202 3.50309 7.95378 1.0622 11.0533 1.0622C14.1532 1.0622 16.6747 3.50314 16.6747 6.50378C16.6747 9.50428 14.1531 11.9454 11.0533 11.9454C7.95374 11.9454 5.43202 9.50442 5.43202 6.50378Z" fill="#6C758D"/>
</svg>
