<svg width="24" height="22" viewBox="0 0 24 22" fill="none" xmlns="http://www.w3.org/2000/svg">
<path d="M23.0343 4.06237C23.0285 4.03061 23.0257 3.99906 23.0142 3.97012C23.0028 3.92973 22.9855 3.89516 22.9624 3.85778C22.9479 3.83185 22.9306 3.80593 22.9105 3.78282C22.8846 3.75107 22.8559 3.72514 22.8241 3.69922C22.7982 3.67912 22.7723 3.66184 22.7435 3.64455C22.709 3.62446 22.6716 3.6128 22.6312 3.60134C22.6111 3.59552 22.5938 3.58125 22.5707 3.57823C22.5562 3.57542 22.542 3.58105 22.5247 3.58105C22.5074 3.58105 22.4959 3.57241 22.4787 3.57241L5.29557 3.57261L4.77404 0.466851C4.76821 0.440926 4.75394 0.417815 4.7453 0.394906C4.73666 0.366168 4.72802 0.337228 4.71355 0.311303C4.69345 0.273924 4.67034 0.239359 4.64441 0.207605C4.62432 0.184494 4.60703 0.164397 4.58392 0.144298C4.55217 0.11556 4.5176 0.0952622 4.48022 0.0751626C4.4543 0.0606928 4.42837 0.0492373 4.39963 0.0377824C4.35924 0.0233127 4.31905 0.0176861 4.27584 0.0118575C4.25574 0.00904399 4.23846 0.000402329 4.21816 0.000402329L0.564743 0C0.253643 0 0 0.253623 0 0.564744C0 0.875865 0.250608 1.12949 0.564743 1.12949H3.74268L5.83435 13.5871C4.91811 13.8118 4.26138 14.6214 4.26138 15.5865V15.6844C4.3074 16.7994 5.218 17.6724 6.33298 17.6724L20.3119 17.6551C20.623 17.6551 20.8766 17.4015 20.8738 17.0903C20.8738 16.7792 20.6202 16.5284 20.3091 16.5284L6.33015 16.5457C5.82029 16.5457 5.40527 16.1482 5.38521 15.6613V15.5893C5.38521 15.0996 5.7568 14.699 6.24655 14.653L10.499 14.2728C10.5135 14.2728 10.5278 14.2728 10.5422 14.27L21.087 13.3306C21.1071 13.3278 21.1244 13.3192 21.1447 13.3134C21.1879 13.3047 21.2311 13.2933 21.2685 13.276C21.2944 13.2645 21.3175 13.2501 21.3404 13.2328C21.375 13.2097 21.4037 13.1868 21.4327 13.1578C21.4528 13.1377 21.47 13.1174 21.4873 13.0915C21.5104 13.0597 21.5277 13.0252 21.545 12.9878C21.5565 12.9591 21.5681 12.9331 21.5767 12.9014C21.5796 12.8869 21.5882 12.8755 21.5912 12.8582L23.0376 4.23499C23.0404 4.22052 23.0348 4.20906 23.0376 4.19459C23.04 4.17168 23.0486 4.15721 23.0486 4.13711C23.0486 4.11119 23.0372 4.08808 23.0342 4.06215L23.0343 4.06237ZM5.75967 6.34418L5.48313 4.69903H8.36422L8.64075 6.34418H5.75967ZM5.94978 7.47064H8.83086L9.15925 9.42684H6.27816L5.94978 7.47064ZM6.9524 13.452L6.46546 10.5536H9.34654L9.79028 13.1983L6.9524 13.452ZM13.0891 12.9045L10.9168 13.0976L10.4904 10.5536H13.0891L13.0891 12.9045ZM13.0891 9.42715H10.3003L9.97189 7.47094H13.0893L13.0891 9.42715ZM13.0891 6.34429H9.78461L9.50807 4.70217H13.0893L13.0891 6.34429ZM16.4658 12.6019L14.2158 12.8037V10.5536H16.8086L16.4658 12.6019ZM16.9987 9.42699H14.2155V7.47079H17.3271L16.9987 9.42699ZM14.2157 6.34413V4.69898H17.7911L17.5146 6.34413H14.2157ZM20.5541 12.2385L17.624 12.498L17.9495 10.5532H20.8335L20.5541 12.2385ZM21.0266 9.42679H18.1397L18.4681 7.47058H21.352L21.0266 9.42679ZM21.5422 6.34393H18.6583L18.9349 4.69878H21.8188L21.5422 6.34393Z" fill="#6C758D"/>
<path d="M8.89976 18.3007C7.87985 18.3007 7.05005 19.1305 7.05005 20.1504C7.05005 21.1703 7.87985 22.0001 8.89976 22.0001C9.91966 22.0001 10.7495 21.1703 10.7495 20.1504C10.7495 19.1305 9.91966 18.3007 8.89976 18.3007ZM8.89976 20.8765C8.49922 20.8765 8.17665 20.5509 8.17665 20.1534C8.17665 19.7528 8.50222 19.4302 8.89976 19.4302C9.29729 19.4302 9.62286 19.7558 9.62286 20.1534C9.62286 20.5509 9.3003 20.8765 8.89976 20.8765Z" fill="#6C758D"/>
<path d="M16.9581 18.3007C15.9382 18.3007 15.1084 19.1305 15.1084 20.1504C15.1084 21.1703 15.9382 22.0001 16.9581 22.0001C17.978 22.0001 18.8078 21.1703 18.8078 20.1504C18.8076 19.1305 17.978 18.3007 16.9581 18.3007ZM16.9581 20.8765C16.5576 20.8765 16.235 20.5509 16.235 20.1534C16.235 19.7528 16.5606 19.4302 16.9581 19.4302C17.3586 19.4302 17.6812 19.7558 17.6812 20.1534C17.6812 20.5509 17.3556 20.8765 16.9581 20.8765Z" fill="#6C758D"/>
</svg>
