<svg width="22" height="22" viewBox="0 0 22 22" fill="none" xmlns="http://www.w3.org/2000/svg">
<path d="M8.32379 0C3.73732 0 0 3.73732 0 8.32379C0 12.9103 3.73732 16.6476 8.32379 16.6476C10.2969 16.6476 12.1068 15.9521 13.5355 14.7989L20.4754 21.7388C20.8235 22.087 21.3905 22.0872 21.7389 21.7388C22.087 21.3906 22.0872 20.8237 21.7389 20.4753L14.8085 13.545C15.9602 12.1167 16.6479 10.2956 16.6479 8.32395C16.6479 3.73748 12.9105 0.000159169 8.32406 0.000159169L8.32379 0ZM8.32379 1.78378C11.9462 1.78378 14.8639 4.7014 14.8639 8.3239C14.8639 11.9464 11.9463 14.864 8.32379 14.864C4.70135 14.864 1.78367 11.9464 1.78367 8.3239C1.78367 4.70124 4.7013 1.78378 8.32379 1.78378V1.78378Z" fill="#6C758D"/>
</svg>
