<svg width="27" height="53" viewBox="0 0 27 53" fill="none" xmlns="http://www.w3.org/2000/svg">
<path d="M26.9918 26.3684C26.9636 26.0987 26.8473 25.847 26.6618 25.6534L2.02377 0.374049C1.80637 0.140044 1.50668 0.00518901 1.19142 0.000144965C0.876171 -0.00489628 0.572386 0.120717 0.348425 0.348C0.124474 0.575283 -0.00121883 0.885743 7.57656e-06 1.20881C0.00123589 1.53229 0.129387 1.8415 0.355381 2.0671L24.1696 26.5L0.355379 50.9329L0.355379 50.9333C0.129385 51.1585 0.0012318 51.4677 5.36553e-06 51.7912C-0.00122298 52.1147 0.124471 52.4247 0.348423 52.652C0.572374 52.8797 0.876169 53.0049 1.19142 52.9999C1.50667 52.9948 1.80637 52.8604 2.02377 52.6259L26.6629 27.3466C26.9106 27.0883 27.0317 26.7291 26.9928 26.3686L26.9918 26.3684Z" fill="#797979"/>
</svg>
