<svg width="27" height="53" viewBox="0 0 27 53" fill="none" xmlns="http://www.w3.org/2000/svg">
<path d="M0.00819732 26.6316C0.0364472 26.9013 0.152723 27.153 0.338187 27.3466L24.9762 52.626C25.1936 52.86 25.4933 52.9948 25.8086 52.9999C26.1238 53.0049 26.4276 52.8793 26.6516 52.652C26.8755 52.4247 27.0012 52.1143 27 51.7912C26.9988 51.4677 26.8706 51.1585 26.6446 50.9329L2.83039 26.5L26.6446 2.0671L26.6446 2.06668C26.8706 1.8415 26.9988 1.53229 27 1.20881C27.0012 0.885323 26.8755 0.575287 26.6516 0.348004C26.4276 0.120301 26.1238 -0.00489013 25.8086 0.000145266C25.4933 0.00518448 25.1936 0.139626 24.9762 0.37405L0.337137 25.6534C0.0894364 25.9117 -0.0317458 26.2709 0.00714978 26.6314L0.00819732 26.6316Z" fill="#797979"/>
</svg>
