<svg width="15" height="14" viewBox="0 0 15 14" fill="none" xmlns="http://www.w3.org/2000/svg">
<path d="M0.173237 0C0.0775571 0 0 0.0775571 0 0.173237C0 0.268917 0.0775571 0.346474 0.173237 0.346474H2.13248C3.03504 2.59528 3.93345 4.84502 4.83309 7.09553L3.99422 9.1089C3.94698 9.21508 4.04036 9.35522 4.15658 9.35244H12.816C12.9074 9.35413 12.9916 9.27078 12.9916 9.1792C12.9916 9.08775 12.9074 9.00476 12.816 9.00597H4.41636L5.147 7.25792L13.6981 6.57596C13.7687 6.5692 13.8322 6.51483 13.8496 6.44609L14.8888 1.94322C14.9113 1.84271 14.8241 1.7329 14.721 1.73217H3.06332L2.41387 0.108539C2.38802 0.0445122 2.32061 -0.000426852 2.25151 0.000296824L0.173237 0ZM3.20402 2.07822H14.5045L13.5412 6.24554L5.13636 6.91661L3.20402 2.07822ZM5.88846 10.3912C5.12532 10.3912 4.50292 11.0136 4.50292 11.7767C4.50292 12.5399 5.12532 13.1623 5.88846 13.1623C6.65159 13.1623 7.27399 12.5399 7.27399 11.7767C7.27399 11.0136 6.65159 10.3912 5.88846 10.3912ZM11.0841 10.3912C10.3209 10.3912 9.69855 11.0136 9.69855 11.7767C9.69855 12.5399 10.3209 13.1623 11.0841 13.1623C11.8472 13.1623 12.4696 12.5399 12.4696 11.7767C12.4696 11.0136 11.8472 10.3912 11.0841 10.3912ZM5.88846 10.7376C6.46446 10.7376 6.92764 11.2007 6.92764 11.7767C6.92764 12.3528 6.46446 12.8159 5.88846 12.8159C5.31258 12.8159 4.84927 12.3528 4.84927 11.7767C4.84927 11.2009 5.31245 10.7376 5.88846 10.7376ZM11.0841 10.7376C11.66 10.7376 12.1233 11.2007 12.1233 11.7767C12.1233 12.3528 11.6601 12.8159 11.0841 12.8159C10.5081 12.8159 10.0449 12.3528 10.0449 11.7767C10.0449 11.2009 10.5081 10.7376 11.0841 10.7376Z" fill="black"/>
</svg>
