<svg width="15" height="13" viewBox="0 0 15 13" fill="none" xmlns="http://www.w3.org/2000/svg">
<path fill-rule="evenodd" clip-rule="evenodd" d="M13.5543 7.43886C13.5179 7.37742 13.4479 7.34413 13.3773 7.35478C13.3067 7.3653 13.2495 7.41769 13.2327 7.48709C12.8487 8.98584 11.8718 10.3474 10.4043 11.1948C7.55753 12.8383 3.96112 11.9214 2.36216 9.15163C1.87097 8.30098 1.62704 7.37479 1.60573 6.45229L3.4161 7.60343V7.60355C3.45539 7.62938 3.50337 7.63831 3.54927 7.62852C3.59516 7.61861 3.63531 7.5907 3.6604 7.55104C3.68562 7.51139 3.69394 7.46328 3.68341 7.41751C3.67289 7.37173 3.64437 7.33207 3.60435 7.30747L1.52348 5.98435C1.48309 5.95864 1.43401 5.95057 1.38762 5.96195C1.34111 5.97333 1.30133 6.0032 1.27746 6.04457L0.0254645 8.21H0.0253421C0.00098517 8.2504 -0.00623606 8.29886 0.00551374 8.34452C0.0172635 8.39018 0.0468836 8.42922 0.0876424 8.45284C0.128523 8.47646 0.177115 8.48258 0.222524 8.46998C0.267933 8.45737 0.306367 8.42689 0.329131 8.38564L1.26914 6.75983C1.33315 7.63937 1.59006 8.51646 2.05812 9.32725C3.75443 12.2653 7.57284 13.2349 10.5796 11.4988C12.1299 10.6038 13.1656 9.16228 13.5726 7.57429V7.57417C13.5851 7.52839 13.5785 7.47956 13.5542 7.4388L13.5543 7.43886Z" fill="black"/>
<path fill-rule="evenodd" clip-rule="evenodd" d="M14.9742 4.09235C14.9419 4.0396 14.8841 4.00778 14.8222 4.00863C14.7603 4.00949 14.7033 4.0429 14.6725 4.09663L13.7538 5.64336C13.6944 4.74841 13.4356 3.85649 12.9602 3.03311C11.2639 0.0950767 7.44546 -0.874512 4.43868 0.861529C2.89622 1.75209 1.86149 3.18464 1.45243 4.76539H1.45255C1.43982 4.8108 1.44594 4.85939 1.46944 4.90027C1.49294 4.94103 1.53186 4.97077 1.57752 4.98252C1.62317 4.99439 1.67164 4.98729 1.71203 4.96294C1.75242 4.9387 1.78131 4.89917 1.7922 4.85327C2.17823 3.36151 3.15387 2.00827 4.61417 1.1653C7.4609 -0.478245 11.0573 0.43886 12.6563 3.20847C13.1516 4.06636 13.397 5.00098 13.4151 5.93278L11.6224 4.76143C11.5835 4.73499 11.5355 4.72533 11.4893 4.73463C11.4432 4.74393 11.4027 4.77135 11.377 4.81076C11.3513 4.85017 11.3425 4.89815 11.3525 4.94417C11.3625 4.99019 11.3907 5.03022 11.4305 5.05519L13.4965 6.40523C13.5366 6.43142 13.5855 6.44011 13.6322 6.42922C13.6788 6.41845 13.7189 6.38907 13.7433 6.34794L14.9742 4.27576C15.0088 4.21945 15.0088 4.14858 14.9742 4.09228L14.9742 4.09235Z" fill="black"/>
</svg>
