<svg width="15" height="13" viewBox="0 0 15 13" fill="none" xmlns="http://www.w3.org/2000/svg">
<path d="M13.8105 1.19174C13.0406 0.423156 12.0174 0 10.93 0C9.84234 0 8.8194 0.423156 8.04957 1.19174L7.49978 1.74153L6.95024 1.19174C6.18165 0.423156 5.15897 0 4.07071 0C2.98246 0 1.95904 0.423156 1.18896 1.19187C-0.396321 2.78014 -0.396321 5.36452 1.18896 6.95314L7.04417 12.8049C7.16582 12.9266 7.32752 12.9935 7.49981 12.9935C7.6721 12.9935 7.83403 12.9266 7.95544 12.8051L13.811 6.95276C15.3964 5.36435 15.3964 2.77979 13.8107 1.19148L13.8105 1.19174ZM13.5915 6.73362L7.73602 12.5856C7.67308 12.6486 7.58924 12.6834 7.49968 12.6834C7.41013 12.6834 7.32642 12.6486 7.26335 12.5856L1.40846 6.73394C-0.0562992 5.26632 -0.0562992 2.87844 1.40833 1.41114C2.1197 0.701269 3.06526 0.31021 4.07079 0.31021C5.07631 0.31021 6.02102 0.701014 6.73088 1.41101L7.39012 2.07025C7.45057 2.13082 7.54896 2.13082 7.60929 2.07025L8.26852 1.41114C8.97963 0.701269 9.92497 0.31021 10.9297 0.31021C11.9348 0.31021 12.88 0.701269 13.5911 1.41101C15.056 2.87825 15.056 5.26619 13.5914 6.73349L13.5915 6.73362Z" fill="black"/>
</svg>
